<svg xmlns="http://www.w3.org/2000/svg" viewBox="0 0 1024 1024" role="img" aria-labelledby="title desc">
  <title id="title">Wrestling Workout Timer icon</title>
  <desc id="desc">A bold timer icon with work and rest color bands and a wrestling W mark.</desc>
  <defs>
    <linearGradient id="bg" x1="130" y1="64" x2="894" y2="960" gradientUnits="userSpaceOnUse">
      <stop offset="0" stop-color="#1c2631"/>
      <stop offset="0.55" stop-color="#0b0f14"/>
      <stop offset="1" stop-color="#05070a"/>
    </linearGradient>
    <linearGradient id="work" x1="84" y1="250" x2="790" y2="790" gradientUnits="userSpaceOnUse">
      <stop offset="0" stop-color="#ff394a"/>
      <stop offset="1" stop-color="#9f111f"/>
    </linearGradient>
    <linearGradient id="rest" x1="280" y1="130" x2="960" y2="700" gradientUnits="userSpaceOnUse">
      <stop offset="0" stop-color="#24c6b5"/>
      <stop offset="1" stop-color="#075f58"/>
    </linearGradient>
    <linearGradient id="steel" x1="230" y1="190" x2="790" y2="850" gradientUnits="userSpaceOnUse">
      <stop offset="0" stop-color="#ffffff"/>
      <stop offset="1" stop-color="#b6c4d2"/>
    </linearGradient>
    <filter id="shadow" x="-20%" y="-20%" width="140%" height="140%">
      <feDropShadow dx="0" dy="30" stdDeviation="34" flood-color="#000000" flood-opacity="0.48"/>
    </filter>
  </defs>
  <rect width="1024" height="1024" rx="224" fill="url(#bg)"/>
  <path d="M-46 736 736-46h258v302L234 1016H-46Z" fill="url(#work)" opacity="0.96"/>
  <path d="M352-30h718v690L656 1016H324L1024 316V-30Z" fill="url(#rest)" opacity="0.9"/>
  <path d="M126 778 778 126" fill="none" stroke="#f8fafc" stroke-width="26" stroke-linecap="round" opacity="0.16"/>
  <path d="M220 858 858 220" fill="none" stroke="#f8fafc" stroke-width="10" stroke-linecap="round" opacity="0.22"/>
  <g filter="url(#shadow)">
    <path d="M430 142h164v92H430z" fill="url(#steel)"/>
    <path d="M376 112h272c28 0 50 22 50 50v20c0 28-22 50-50 50H376c-28 0-50-22-50-50v-20c0-28 22-50 50-50Z" fill="#f8fafc"/>
    <circle cx="512" cy="576" r="302" fill="#0b0f14" stroke="url(#steel)" stroke-width="54"/>
    <circle cx="512" cy="576" r="224" fill="#111827" stroke="#273443" stroke-width="18"/>
    <path d="M322 496h77l49 176 56-176h60l56 176 49-176h77L656 730h-66l-56-165-56 165h-66Z" fill="#f8fafc"/>
    <path d="M512 342v64M512 746v64M746 576h64M214 576h64" stroke="#f8fafc" stroke-width="28" stroke-linecap="round" opacity="0.72"/>
    <path d="M512 576 640 448" stroke="#f59e0b" stroke-width="34" stroke-linecap="round"/>
    <circle cx="512" cy="576" r="31" fill="#f59e0b"/>
  </g>
  <path d="M190 180c80-60 178-92 292-92" fill="none" stroke="#ffffff" stroke-width="18" stroke-linecap="round" opacity="0.18"/>
</svg>
